  0
SECTION
  2
TABLES
  0
TABLE
  2
LAYER
 70
     4
  0
LAYER
  2
0
 70
     0
 62
     7
  6
CONTINUOUS
  0
LAYER
  2
TOP-CUT-OUTSIDE--18MM
 70
     0
 62
   230
  6
CONTINUOUS
  0
LAYER
  2
TOP-POCKET-INSIDE--10MM
 70
     0
 62
   60
  6
CONTINUOUS
  0
LAYER
  2
TOP-POCKET-INSIDE--7MM
 70
     0
 62
   4
  6
CONTINUOUS
  0
ENDTAB
  0
ENDSEC
  0
SECTION
  2
ENTITIES
  0
POLYLINE
8
TOP-CUT-OUTSIDE--18MM
 66
100
 70
1
 10
0.0
 20
0.0
 30
0.0
  0
VERTEX
  8
TOP-CUT-OUTSIDE--18MM
 10
0.0
 20
0.0
 30
-18.0
  0
VERTEX
  8
TOP-CUT-OUTSIDE--18MM
 10
0.0
 20
50.0
 30
-18.0
  0
VERTEX
  8
TOP-CUT-OUTSIDE--18MM
 10
50.0
 20
50.0
 30
-18.0
  0
VERTEX
  8
TOP-CUT-OUTSIDE--18MM
 10
50.0
 20
0.0
 30
-18.0
  0
VERTEX
  8
TOP-CUT-OUTSIDE--18MM
 10
0.0
 20
0.0
 30
-18.0
  0
SEQEND
  0
POLYLINE
8
TOP-CUT-OUTSIDE--18MM
 66
100
 70
1
 10
0.0
 20
0.0
 30
0.0
  0
VERTEX
  8
TOP-CUT-OUTSIDE--18MM
 10
134.0848160643809
 20
58.7647276028015
 30
-18.0
  0
VERTEX
  8
TOP-CUT-OUTSIDE--18MM
 10
137.39142534915447
 20
13.416943125906897
 30
-18.0
  0
VERTEX
  8
TOP-CUT-OUTSIDE--18MM
 10
80.0
 20
0.0
 30
-18.0
  0
VERTEX
  8
TOP-CUT-OUTSIDE--18MM
 10
100.0
 20
50.0
 30
-18.0
  0
VERTEX
  8
TOP-CUT-OUTSIDE--18MM
 10
134.0848160643809
 20
58.7647276028015
 30
-18.0
  0
SEQEND
  0
POLYLINE
8
TOP-POCKET-INSIDE--7MM
 66
100
 70
1
 10
0.0
 20
0.0
 30
0.0
  0
VERTEX
  8
TOP-POCKET-INSIDE--7MM
 10
60.0
 20
6.532384860115559
 30
-7.000000000000001
  0
VERTEX
  8
TOP-POCKET-INSIDE--7MM
 10
60.0
 20
28.5071949280969
 30
-7.000000000000001
  0
VERTEX
  8
TOP-POCKET-INSIDE--7MM
 10
43.24045131085214
 20
28.5071949280969
 30
-7.000000000000001
  0
VERTEX
  8
TOP-POCKET-INSIDE--7MM
 10
43.24045131085214
 20
6.532384860115559
 30
-7.000000000000001
  0
VERTEX
  8
TOP-POCKET-INSIDE--7MM
 10
60.0
 20
6.532384860115559
 30
-7.000000000000001
  0
SEQEND
  0
POLYLINE
8
TOP-POCKET-INSIDE--7MM
 66
100
 70
1
 10
0.0
 20
0.0
 30
0.0
  0
VERTEX
  8
TOP-POCKET-INSIDE--7MM
 10
35.0
 20
60.0
 30
-7.000000000000001
  0
VERTEX
  8
TOP-POCKET-INSIDE--7MM
 10
20.0
 20
60.0
 30
-7.000000000000001
  0
VERTEX
  8
TOP-POCKET-INSIDE--7MM
 10
20.0
 20
40.0
 30
-7.000000000000001
  0
VERTEX
  8
TOP-POCKET-INSIDE--7MM
 10
35.0
 20
40.0
 30
-7.000000000000001
  0
VERTEX
  8
TOP-POCKET-INSIDE--7MM
 10
35.0
 20
60.0
 30
-7.000000000000001
  0
SEQEND
  0
POLYLINE
8
TOP-POCKET-INSIDE--7MM
 66
100
 70
1
 10
0.0
 20
0.0
 30
0.0
  0
VERTEX
  8
TOP-POCKET-INSIDE--7MM
 10
23.54873839279093
 20
-10.0
 30
-7.000000000000001
  0
VERTEX
  8
TOP-POCKET-INSIDE--7MM
 10
31.539578417511418
 20
-10.0
 30
-7.000000000000001
  0
VERTEX
  8
TOP-POCKET-INSIDE--7MM
 10
31.539578417511418
 20
6.532384860115559
 30
-7.000000000000001
  0
VERTEX
  8
TOP-POCKET-INSIDE--7MM
 10
23.54873839279093
 20
6.532384860115559
 30
-7.000000000000001
  0
VERTEX
  8
TOP-POCKET-INSIDE--7MM
 10
23.54873839279093
 20
-10.0
 30
-7.000000000000001
  0
SEQEND
  0
POLYLINE
8
TOP-POCKET-INSIDE--7MM
 66
100
 70
1
 10
0.0
 20
0.0
 30
0.0
  0
VERTEX
  8
TOP-POCKET-INSIDE--7MM
 10
-10.0
 20
34.58706352801565
 30
-7.000000000000001
  0
VERTEX
  8
TOP-POCKET-INSIDE--7MM
 10
-10.0
 20
14.711705228191203
 30
-7.000000000000001
  0
VERTEX
  8
TOP-POCKET-INSIDE--7MM
 10
15.939188918645115
 20
14.711705228191203
 30
-7.000000000000001
  0
VERTEX
  8
TOP-POCKET-INSIDE--7MM
 10
15.939188918645115
 20
34.58706352801565
 30
-7.000000000000001
  0
VERTEX
  8
TOP-POCKET-INSIDE--7MM
 10
-10.0
 20
34.58706352801565
 30
-7.000000000000001
  0
SEQEND
  0
POLYLINE
8
TOP-POCKET-INSIDE--10MM
 66
100
 70
1
 10
0.0
 20
0.0
 30
0.0
  0
VERTEX
  8
TOP-POCKET-INSIDE--10MM
 10
92.8357876636243
 20
32.08946915906074
 30
-10.0
  0
VERTEX
  8
TOP-POCKET-INSIDE--10MM
 10
99.73191467725061
 20
29.33101835361021
 30
-10.0
  0
VERTEX
  8
TOP-POCKET-INSIDE--10MM
 10
113.18232165706232
 20
44.82973133125576
 30
-10.0
  0
VERTEX
  8
TOP-POCKET-INSIDE--10MM
 10
107.1391539616089
 20
62.161120143240865
 30
-10.0
  0
VERTEX
  8
TOP-POCKET-INSIDE--10MM
 10
88.22480653804215
 20
63.39883193535255
 30
-10.0
  0
VERTEX
  8
TOP-POCKET-INSIDE--10MM
 10
92.8357876636243
 20
32.08946915906074
 30
-10.0
  0
SEQEND
  0
POLYLINE
8
TOP-POCKET-INSIDE--10MM
 66
100
 70
1
 10
0.0
 20
0.0
 30
0.0
  0
VERTEX
  8
TOP-POCKET-INSIDE--10MM
 10
129.461883000363
 20
11.563178071964519
 30
-10.0
  0
VERTEX
  8
TOP-POCKET-INSIDE--10MM
 10
124.16498821006022
 20
21.21109358287315
 30
-10.0
  0
VERTEX
  8
TOP-POCKET-INSIDE--10MM
 10
102.19965510406439
 20
13.416943125906897
 30
-10.0
  0
VERTEX
  8
TOP-POCKET-INSIDE--10MM
 10
105.06591127458698
 20
-4.409731322387537
 30
-10.0
  0
VERTEX
  8
TOP-POCKET-INSIDE--10MM
 10
129.461883000363
 20
11.563178071964519
 30
-10.0
  0
SEQEND
  0
ENDSEC
  0
SEQEND
  0
EOF
