# Rhino

g Default
o Body1
v 0 0 0
v 0 5 0
v 0 0 10
v 0 5 10
v 0 0 5
v 0 5 5
v 10 0 0
v 10 5 0
v 0 0 0
v 0 5 0
v 5 0 0
v 5 5 0
v 10 0 10
v 10 5 10
v 10 0 0
v 10 5 0
v 10 0 5
v 10 5 5
v 0 0 10
v 0 5 10
v 10 0 10
v 10 5 10
v 5 0 10
v 5 5 10
v 0 5 0
v 10 5 0
v 0 5 10
v 10 5 10
v 0 5 5
v 5 5 0
v 10 5 5
v 5 5 10
v 0 0 10
v 0 0 0
v 10 0 10
v 10 0 0
v 0 0 5
v 5 0 0
v 10 0 5
v 5 0 10
vt 0.49853515625 0
vt 0.25 0
vt 0.49853515625 0.49853515625
vt 0.25 0.49853515625
vt 0.49853515625 0.249267578125
vt 0.25 0.249267578125
vt 0.24853515625 0
vt 0 0
vt 0.24853515625 0.49853515625
vt 0 0.49853515625
vt 0.24853515625 0.249267578125
vt 0 0.249267578125
vt 0.49853515625 0.5
vt 0.25 0.5
vt 0.49853515625 0.99853515625
vt 0.25 0.99853515625
vt 0.49853515625 0.749267578125
vt 0.25 0.749267578125
vt 0.24853515625 0.5
vt 0 0.5
vt 0.24853515625 0.99853515625
vt 0 0.99853515625
vt 0.24853515625 0.749267578125
vt 0 0.749267578125
vt 0.99853515625 0.5
vt 0.5 0.5
vt 0.99853515625 0.99853515625
vt 0.5 0.99853515625
vt 0.99853515625 0.749267578125
vt 0.749267578125 0.5
vt 0.5 0.749267578125
vt 0.749267578125 0.99853515625
vt 0.99853515625 0
vt 0.5 0
vt 0.99853515625 0.49853515625
vt 0.5 0.49853515625
vt 0.749267578125 0
vt 0.5 0.249267578125
vt 0.749267578125 0.49853515625
vt 0.99853515625 0.249267578125
vn -1 0 0
vn -1 0 0
vn -1 0 0
vn -1 0 0
vn -1 0 0
vn -1 0 0
vn 0 0 -1
vn 0 0 -1
vn 0 0 -1
vn 0 0 -1
vn 0 0 -1
vn 0 0 -1
vn 1 0 4.163336342344337e-17
vn 1 0 0
vn 1 0 4.163336342344337e-17
vn 1 0 0
vn 1 0 0
vn 1 0 0
vn -4.163336342344337e-17 0 1
vn 0 0 1
vn -4.163336342344337e-17 0 1
vn 0 0 1
vn 0 0 1
vn 0 0 1
vn 0 1 2.081668171172169e-17
vn 0 1 0
vn 0 1 2.081668171172169e-17
vn 0 1 0
vn 0 1 0
vn 0 1 0
vn 0 1 0
vn 0 1 0
vn 0 -1 0
vn 0 -1 0
vn 0 -1 0
vn 0 -1 0
vn 0 -1 0
vn 0 -1 0
vn 0 -1 0
vn 0 -1 0
f 2/2/2 1/1/1 5/5/5 6/6/6
f 3/3/3 4/4/4 6/6/6 5/5/5
f 8/8/8 7/7/7 11/11/11 12/12/12
f 9/9/9 10/10/10 12/12/12 11/11/11
f 14/14/14 13/13/13 17/17/17 18/18/18
f 15/15/15 16/16/16 18/18/18 17/17/17
f 20/20/20 19/19/19 23/23/23 24/24/24
f 21/21/21 22/22/22 24/24/24 23/23/23
f 30/30/30 25/25/25 29/29/29
f 30/30/30 31/31/31 26/26/26
f 32/32/32 30/30/30 29/29/29
f 30/30/30 32/32/32 31/31/31
f 32/32/32 28/28/28 31/31/31
f 27/27/27 32/32/32 29/29/29
f 37/37/37 40/40/40 33/33/33
f 37/37/37 34/34/34 38/38/38
f 39/39/39 40/40/40 37/37/37
f 37/37/37 38/38/38 39/39/39
f 39/39/39 38/38/38 36/36/36
f 35/35/35 40/40/40 39/39/39
